PathFileType	4	(X/Y/Z)	OpenSim_Sub07_EMGStiffKnee_Gyro.trc
DataRate	CameraRate	NumFrames	NumMarkers	Units	OrigDataRate	OrigDataStartFrame	OrigNumFrames
100	100	20	8	m	100	1	7388
Frame#	Time	torso_imu_offset_imu	pelvis_imu_offset_imu	tibia_r_imu_offset_imu	femur_r_imu_offset_imu	tibia_l_imu_offset_imu	femur_l_imu_offset_imu	toes_r_imu_offset_imu	toes_l_imu_offset_imu
				X1	Y1	Z1	X2	Y2	Z2	X3	Y3	Z3	X4	Y4	Z4	X5	Y5	Z5	X6	Y6	Z6	X7	Y7	Z7	X8		Y8	Z8	

1	0	0.02243555	-0.01250362	0.00377320	0.01384807	0.01109148	-0.00225437	0.01999975	0.00382820	-0.00229079	0.01126228	-0.00367546	0.02445481	0.02877231	0.00772961	-0.00921855	-0.00003605	0.00385251	-0.03329851	0.00402979	0.01417838	0.00364225	-0.00660725	0.01900143	-0.00427864
2	0.01000000	0.02011618	-0.01038261	0.00022901	0.01458455	0.01872865	-0.00395749	0.02384757	0.00636703	-0.00085372	0.01833146	-0.00565914	0.02163498	0.02912555	-0.00027142	-0.00848044	-0.00141293	0.00809360	-0.03452048	0.00403573	0.01472278	0.00275231	-0.00700517	0.02059024	-0.00205259
3	0.02000000	0.01691616	-0.00431369	0.00130040	0.01441792	0.01344448	-0.00453735	0.02836189	0.01265952	0.00437789	0.03471021	0.00410429	0.01982788	0.02210955	-0.00233313	-0.00716072	0.00563179	0.00763601	-0.03865641	0.00081205	0.01458288	0.00268530	-0.00492174	0.02041747	-0.00058016
4	0.03000000	0.01715164	0.00104115	0.00162444	0.01323103	0.01581601	-0.00331529	0.03153808	0.01350129	0.00260405	0.03170139	0.01865601	0.01639914	0.02418303	0.00096476	-0.00040728	0.01602028	0.00774019	-0.04676875	0.00068647	0.01434184	0.00301839	-0.00434556	0.01679880	-0.00185259
5	0.04000000	0.01367009	0.00336940	0.00164531	0.01387157	0.01352426	-0.00307412	0.03404109	0.01299155	0.00445024	0.01632815	0.01939368	0.02014899	0.01239472	0.00129417	0.00076715	0.02000653	0.00836500	-0.04912376	0.00031641	0.01425836	0.00217907	-0.00523737	0.01689923	-0.00111595
6	0.05000000	0.00716762	0.00750885	0.00025892	0.01354618	0.00988411	-0.00375280	0.02455838	0.01693652	0.00248029	0.00964859	0.01320124	0.02572974	-0.00314753	0.00479917	0.00493407	0.01379131	0.00792102	-0.05038947	0.00450815	0.01356418	0.00160597	-0.00096122	0.01887713	-0.00181876
7	0.06000000	0.00261917	0.01293282	0.00267423	0.00887248	0.00735535	-0.00202838	0.01482286	0.01813189	0.00657963	0.00833829	0.01027302	0.01872966	0.00381526	0.01108141	0.00487118	0.00920981	0.00264515	-0.04964655	0.00133623	0.01404547	0.00136943	-0.01035636	0.01701688	-0.00064220
8	0.07000000	0.00296729	0.01737160	-0.00283206	0.00668272	0.00410072	0.00057646	0.01284105	0.01989490	0.01013149	0.00400158	0.00799281	0.01750501	0.02117632	0.00335193	0.00435633	0.01205745	0.00600327	-0.04526329	0.00031621	0.01227464	0.00213051	-0.00652788	0.01866388	0.00259867
9	0.08000000	0.00411921	0.01944746	-0.00564479	0.00463865	0.00101144	-0.00286871	0.01129306	0.01495341	0.00724475	0.00454136	0.00824062	0.02106873	0.02518440	0.00533204	0.00273211	0.00678194	0.00450175	-0.04290944	0.00142882	0.01144989	0.00439108	0.00114005	0.01847741	-0.00219919
10	0.09000000	0.00088822	0.01763748	-0.00601551	-0.00526587	-0.00081324	-0.00383680	0.01052409	0.01114450	0.00990944	0.01270537	0.00680577	0.02041316	0.02106994	0.01392937	0.00190132	0.00327274	-0.00365311	-0.04077765	0.00198449	0.01187017	0.00265399	-0.00974674	0.02410747	-0.00185483
11	0.10000000	0.00119678	0.01888910	-0.00459114	-0.00766889	-0.00425417	-0.00609961	0.00080225	0.01569082	0.01290031	0.00742783	0.01441973	0.02343028	0.01642453	0.00290598	-0.00320987	-0.01013357	-0.00103318	-0.03417864	0.00062707	0.01232654	-0.00137547	-0.00347683	0.01778756	-0.00098188
12	0.11000000	-0.00537264	0.01858475	-0.00688258	-0.00399114	-0.00776731	-0.00754624	-0.00472911	0.01341093	0.01052350	-0.01251456	0.02549596	0.02407694	0.00894240	-0.00075370	-0.00730810	-0.02726470	-0.00135441	-0.02950175	0.00078219	0.01195737	0.00146434	-0.00803842	0.01797482	-0.00074503
13	0.12000000	-0.00393427	0.01990195	-0.00814406	-0.00327838	-0.00475851	-0.00795003	-0.01038160	0.00921753	0.01013727	-0.02598287	0.02227352	0.02412488	0.00494995	-0.00055332	-0.01124009	-0.02578327	0.00075796	-0.02517547	0.00077287	0.01206694	-0.00047338	-0.00353985	0.01900702	-0.00160016
14	0.13000000	-0.00307495	0.02094135	-0.01191397	-0.00078928	-0.00341231	-0.01115109	-0.01272112	0.00737330	0.01051602	-0.02059862	0.01004173	0.02332998	0.00601916	-0.00389693	-0.01000912	-0.02040151	0.00250154	-0.02551700	0.00094964	0.01282106	-0.00021053	-0.00513183	0.01531689	0.00054025
15	0.14000000	-0.00568733	0.01689191	-0.01349669	-0.00169758	-0.00774023	-0.01231406	-0.01113057	0.00946664	0.00992828	-0.01335179	0.00180309	0.02167809	-0.00322880	0.00266535	-0.01263212	-0.02650916	0.00163610	-0.02453178	-0.00019271	0.01201512	0.00213584	-0.00140469	0.01689018	-0.00105789
16	0.15000000	-0.00649758	0.01409460	-0.01282429	-0.00609011	-0.01140578	-0.01177690	-0.00290006	0.01298961	0.00694676	-0.01010897	0.00123056	0.02331838	0.00139463	0.00345010	-0.01400304	-0.03001853	-0.00660783	-0.01918733	-0.00081135	0.01064675	0.00215630	-0.00735290	0.01666769	-0.00457321
17	0.16000000	-0.01090120	0.01844559	-0.01444943	-0.00848973	-0.00670499	-0.01441294	0.00142243	0.01580384	0.00859586	-0.01612385	0.00122626	0.02626123	0.00584040	0.00322130	-0.00947378	-0.01393188	-0.00875659	-0.02161888	0.00173491	0.01229320	0.00231493	0.00105944	0.01735661	-0.00172842
18	0.17000000	-0.00751010	0.01819685	-0.01507010	-0.00872419	-0.00896008	-0.01343212	0.00780594	0.01578637	0.00890021	-0.02128528	0.00967295	0.02689519	0.00165426	0.00064278	-0.01079506	-0.00691823	0.00171620	-0.01715612	0.00223369	0.01119962	0.00031978	-0.00535843	0.01431987	-0.00361348
19	0.18000000	-0.00757533	0.02017387	-0.01640506	-0.00636548	-0.01187786	-0.00893968	0.01378211	0.01922930	0.00662934	-0.01008298	0.02920871	0.02163376	0.00004155	-0.00129825	-0.01600183	-0.00697930	-0.00603829	-0.01652272	0.00043690	0.01019185	0.00075673	-0.00224661	0.01464612	-0.00524327
20	0.19000000	-0.00895828	0.02005168	-0.01495240	-0.00677216	-0.01134920	-0.00954246	0.00516454	0.02047702	0.01010753	0.00268030	0.03436110	0.01874074	-0.00279406	0.00448616	-0.01066026	-0.01611671	-0.01046148	-0.01878921	0.00187170	0.01005023	0.00261540	-0.00406169	0.01635031	-0.00348059
